<svg xmlns="http://www.w3.org/2000/svg" xmlns:xlink="http://www.w3.org/1999/xlink" version="1.1" x="0px" y="0px" viewBox="0 0 256 256" enable-background="new 0 0 256 256" xml:space="preserve">
<metadata> Svg Vector Icons : http://www.onlinewebfonts.com/icon </metadata>
<g><g><g><path strokewidth="2" fillopacity="0" stroke="#000000" d="M55,6.5c-7.2,1.1-15.6,4.4-21.9,8.6c-4.2,2.9-11,9.5-13.9,13.7c-3.3,4.7-6.4,11.5-8,17.2L10,50.7v71.3v71.3l1.3,4.7c1.6,5.7,4.7,12.5,8,17.2c2.9,4.2,9.7,10.9,13.9,13.7c4.4,3,11.3,6.1,16.6,7.6l4.7,1.2l35.6,0.2c19.6,0,36.1,0,36.7-0.1c4-1,4-7.2,0-8.1c-0.6-0.1-17.1-0.3-36.7-0.4C55,229.1,54.4,229,50.7,228c-5.3-1.4-12.8-5.3-16.6-8.4c-6.7-5.6-12.1-14.1-14.4-22.8l-1-4.1v-70.8V51.1l1.1-4.1c1.4-5.4,5.2-12.9,8.5-16.8c5.6-6.7,14.1-12.1,22.8-14.4l4.1-1.1h70.8h70.8l4.1,1.1c8.7,2.3,17.2,7.7,22.8,14.4c3.2,3.8,7,11.3,8.4,16.6l1.1,3.8l0.2,56.1l0.2,56.2l1.3,1.1c1.9,1.6,3.9,1.5,5.6-0.3l1.4-1.4l-0.1-55.9l-0.1-55.9l-1.3-4.7c-1.5-5.4-4.6-12.2-7.6-16.6c-2.9-4.2-9.5-11-13.7-13.9c-4.7-3.3-11.5-6.4-17.2-8L197,6.2l-69.6,0C89.2,6.1,56.5,6.2,55,6.5z"/><path strokewidth="2" fillopacity="0" stroke="#000000" d="M93.2,36.7c-0.5,0.4-7,7.7-14.3,16.3c-7.3,8.6-13.5,15.6-13.6,15.6c-0.2,0-4.1-2.8-8.6-6.2c-4.6-3.4-8.8-6.4-9.5-6.6c-1.9-0.5-3.5,0.4-4.5,2.3c-1.5,3-0.8,3.7,10.7,12.4c5.6,4.2,10.8,7.9,11.4,8.1c0.6,0.2,1.7,0.3,2.3,0.1c0.8-0.2,6.2-6.1,16.9-18.7c17.3-20.2,17.1-19.9,14.3-22.7C96.7,35.9,94.8,35.6,93.2,36.7z"/><path strokewidth="2" fillopacity="0" stroke="#000000" d="M122.9,58.8c-1.7,1.6-1.6,4.4,0,6l1.2,1.1h40.4H205l1.1-1.3c1.7-2,1.4-4.8-0.7-6.4c-0.6-0.5-10.1-0.6-41.1-0.6H124L122.9,58.8z"/><path strokewidth="2" fillopacity="0" stroke="#000000" d="M93,97c-0.4,0.3-6.6,7.5-13.8,15.9c-7.2,8.4-13.3,15.5-13.5,15.7c-0.2,0.2-4.2-2.4-9.1-6.1c-9.6-7.2-10.6-7.6-13.1-5.5c-1.5,1.2-1.8,4-0.7,5.4c0.3,0.5,5.4,4.4,11.1,8.7c11.6,8.7,12.4,9,15.1,6.5c3.1-2.9,30.2-35.1,30.5-36.2c0.6-2.6-1.3-5.1-4.1-5.1C94.5,96.3,93.4,96.6,93,97z"/><path strokewidth="2" fillopacity="0" stroke="#000000" d="M122.9,119.1c-0.8,0.8-1.2,1.7-1.2,2.9s0.4,2.1,1.2,2.9l1.1,1.2h40.5H205l1.1-1.2c1.6-1.6,1.6-4.2,0-5.7l-1.1-1.2h-40.5H124L122.9,119.1z"/><path strokewidth="2" fillopacity="0" stroke="#000000" d="M187.8,147.8c-0.6,0.4-4.4,7.3-8.5,15.4c-4.1,8.1-7.7,14.9-7.8,15.1c-0.1,0.1-8,1.4-17.5,2.7c-15.2,2.1-17.3,2.5-18.3,3.4c-1.2,1.1-1.5,3.6-0.7,5.1c0.2,0.5,5.8,5.9,12.4,12.1c9.4,8.8,12,11.5,12,12.4c0,0.6-1.2,7.8-2.6,15.9c-1.4,8.1-2.6,15.4-2.6,16.2c0,2,1.9,3.8,3.9,3.8c1.1,0,6.6-2.5,16.8-7.7l15.3-7.7l15.2,7.7c16.8,8.6,17.7,8.8,19.8,6.2c0.7-0.8,1.2-1.7,1.2-1.9c0-0.2-1.3-7.7-2.9-16.6c-1.6-8.8-2.9-16.3-2.9-16.5c0-0.2,3.7-3.8,8.3-8.1c14-13.3,16.6-15.8,16.9-17.1c0.5-2-1-4.3-3.1-4.8c-1-0.3-8.9-1.5-17.6-2.7c-8.8-1.2-16-2.4-16.4-2.8c-0.3-0.3-3.8-7-7.8-14.8c-4.4-8.7-7.7-14.6-8.5-15.2C191.2,146.9,189.3,146.8,187.8,147.8z M196.7,173.4c4.3,8.4,6.6,12.4,7.4,12.7c0.6,0.3,7,1.3,14.3,2.3c7.3,1,13.3,2,13.3,2.2c0,0.2-4.4,4.5-9.8,9.5c-6.6,6.3-9.9,9.6-10,10.5c-0.1,0.7,0.8,7,2.1,14.2c1.3,7.1,2.2,13,2.2,13.1c0,0.1-5.6-2.7-12.4-6.1c-6.7-3.4-12.8-6.3-13.4-6.3c-0.7,0-6.8,2.8-13.6,6.2c-7,3.5-12.4,6-12.4,5.6s1-6,2.2-12.6c1.2-6.6,2.2-12.6,2.2-13.5c0-1.4-1-2.5-9.9-10.9c-5.5-5.2-10-9.6-10.1-9.8c0-0.2,5.9-1.1,13.3-2.2c7.4-1,13.9-2.1,14.5-2.4c0.6-0.3,1.9-2.1,3-4.1c8.9-17.3,10.9-21.1,11-21C190.4,161.1,193.2,166.7,196.7,173.4z"/><path strokewidth="2" fillopacity="0" stroke="#000000" d="M93.6,161.3c-0.9,0.4-7.4,7.7-14.8,16.4c-7.3,8.6-13.3,15.6-13.4,15.7c0,0.1-4-2.8-8.8-6.4c-7.3-5.5-9-6.6-10.4-6.6c-2.9,0-5,2.9-4,5.5c0.3,0.8,4.4,4.2,11.3,9.4c11.3,8.4,12.6,9.1,14.6,7.5c1.8-1.3,31-36,31.3-37c0.5-1.8-0.7-4-2.5-4.7C95.1,160.3,95.4,160.3,93.6,161.3z"/></g></g></g>
</svg>